<svg xmlns="http://www.w3.org/2000/svg" width="256" height="256" viewBox="0 0 256 256" version="1.1"><path d="M 79.246 79.254 L 32 126.508 32 127.508 L 32 128.508 79.254 175.754 L 126.508 223 127.508 223 L 128.508 223 175.754 175.746 L 223 128.492 223 127.492 L 223 126.492 175.746 79.246 L 128.492 32 127.492 32 L 126.492 32 79.246 79.254 M 88.245 88.255 L 49 127.509 88.255 166.755 L 127.509 206 166.755 166.745 L 206 127.491 166.745 88.245 L 127.491 49 88.245 88.255 M 118.422 82.418 L 115.345 83.759 111.514 87.122 L 107.683 90.485 105.351 95.493 L 103.020 100.500 103.010 105.554 L 103 110.607 105.505 115.634 L 108.010 120.660 110.473 122.975 L 112.936 125.289 108.718 127.969 L 104.500 130.649 101.151 134.472 L 97.803 138.294 95.827 142.897 L 93.851 147.500 93.286 152.250 L 92.721 157 96.861 157 L 101 157 101.010 153.750 L 101.020 150.500 103.374 145.444 L 105.728 140.389 110.087 136.657 L 114.446 132.926 119.887 131.345 L 125.327 129.763 130.750 130.400 L 136.172 131.038 139.336 132.629 L 142.500 134.220 146.332 137.860 L 150.165 141.500 151.582 144.200 L 153 146.900 154.083 151.950 L 155.166 157 158.723 157 L 162.280 157 161.725 151.628 L 161.171 146.255 158.993 141.986 L 156.814 137.716 152.369 132.963 L 147.924 128.211 144.978 126.991 L 142.032 125.771 145.840 121.444 L 149.648 117.118 150.824 113.193 L 152 109.268 151.978 104.384 L 151.956 99.500 150.100 95.500 L 148.244 91.500 144.872 88.099 L 141.500 84.698 137.500 82.871 L 133.500 81.044 127.500 81.061 L 121.500 81.078 118.422 82.418 M 118.922 91.274 L 115.548 93.548 113.185 97.024 L 110.823 100.500 111.212 106.065 L 111.601 111.631 113.885 114.838 L 116.168 118.045 120.261 120.133 L 124.353 122.221 129.251 121.750 L 134.149 121.279 136.824 119.298 L 139.500 117.316 141.750 114.010 L 144 110.704 144 105.753 L 144 100.802 142.370 97.367 L 140.740 93.932 136.532 91.466 L 132.324 89 127.310 89 L 122.296 89 118.922 91.274" stroke="none" fill="#ffffff" fill-rule="evenodd"/></svg>